<?xml version="1.0" encoding="utf-8"?>
<!-- Generator: Adobe Illustrator 27.5.0, SVG Export Plug-In . SVG Version: 6.00 Build 0)  -->
<svg version="1.1" id="图层_1" xmlns="http://www.w3.org/2000/svg" xmlns:xlink="http://www.w3.org/1999/xlink" x="0px" y="0px"
	 viewBox="0 0 128 128" style="enable-background:new 0 0 128 128;" xml:space="preserve">
<style type="text/css">
	.st0{clip-path:url(#SVGID_00000051357611914862557330000016481556479922704826_);}
	.st1{fill-rule:evenodd;clip-rule:evenodd;fill:#E6EFFC;}
	.st2{fill:none;stroke:#0A5AD4;stroke-width:4;stroke-linecap:round;}
</style>
<g>
	<defs>
		<rect id="SVGID_1_" y="0" width="128" height="128"/>
	</defs>
	<clipPath id="SVGID_00000060026727482736729290000012313694279888936591_">
		<use xlink:href="#SVGID_1_"  style="overflow:visible;"/>
	</clipPath>
	<g id="rain__rain" style="clip-path:url(#SVGID_00000060026727482736729290000012313694279888936591_);">
		<g id="rain__Sky">
			<g id="rain__Clouds">
				<g id="rain__Cloud">
					<path id="rain__Cloud_2" class="st1" d="M54.8,48.2c5-8.1,15.4-11.4,24.2-7.7c8.7,3.7,13.7,13.4,11.4,22.6
						C97.7,62.8,104,68.7,104,76c0,7.1-6,13-13,13c-1.1,0-2-0.9-2-2c0-1.1,0.9-2,2-2c4.9,0,9-4.1,9-9c0-5-4.4-9.2-9.4-8.9l-2.7,0.1
						c-1.1,0-2-0.8-2.1-1.9c0-0.2,0-0.4,0.1-0.6l0.6-2.6c1.8-7.3-2.1-15-9-17.9c-6.9-2.9-15.3-0.2-19.2,6.1l-1,1.7
						c-0.6,0.9-1.8,1.2-2.7,0.7l-1.7-1c-3-1.8-6.8-1.7-9.7,0.3c-2.8,1.9-4.4,5.5-3.8,8.9l0.3,1.9c0.2,1.1-0.5,2.1-1.6,2.3l-1.9,0.4
						c-5,0.9-8.5,5.7-8,10.6c0.5,5,4.9,9,9.9,9c1.1,0,2,0.9,2,2c0,1.1-0.9,2-2,2c-7.1,0-13.2-5.5-13.9-12.6
						c-0.7-7.1,4.3-13.6,11.3-15c-0.8-4.9,1.3-10,5.5-12.9C45,45.8,50.5,45.6,54.8,48.2"/>
				</g>
			</g>
		</g>
		<g id="rain__Precipitation">
			<g id="rain__Raindrops">
				<path id="rain_x5F__x5F_Raindrop_1" class="st2" d="M52,91v12"/>
				<path id="rain_x5F__x5F_Raindrop_3" class="st2" d="M76,83v12"/>
			</g>
		</g>
	</g>
</g>
</svg>
